<svg xmlns="http://www.w3.org/2000/svg" xmlns:xlink="http://www.w3.org/1999/xlink" width="200" height="200" viewBox="0 0 150 150"><style><![CDATA[.B{fill:rgb(35.294118%,35.294118%,43.137255%)}.C{fill:rgb(27.45098%,27.45098%,35.294118%)}]]></style><g class="B"><use xlink:href="#B"/><path d="M22.266 88.184H17.87V57.422c0-2.426-1.97-4.395-4.395-4.395h-8.79c-2.426 0-4.395 1.97-4.395 4.395s1.97 4.395 4.395 4.395h4.395v26.367H4.688c-2.426 0-4.395 1.97-4.395 4.395s1.97 4.395 4.395 4.395h17.578c2.426 0 4.395-1.97 4.395-4.395s-1.97-4.395-4.395-4.395zm0 0"/><use xlink:href="#B" x="41.016"/><path d="M145.313 88.184h-4.395V57.422c0-2.426-1.97-4.395-4.395-4.395h-8.79c-2.426 0-4.395 1.97-4.395 4.395s1.97 4.395 4.395 4.395h4.395v26.367h-4.395c-2.426 0-4.395 1.97-4.395 4.395s1.97 4.395 4.395 4.395h17.578c2.426 0 4.395-1.97 4.395-4.395s-1.97-4.395-4.395-4.395zm0 0"/></g><g class="C"><use xlink:href="#C"/><path d="M22.266 141.21H17.87V110.45c0-2.426-1.97-4.395-4.395-4.395h-8.79c-2.426 0-4.395 1.97-4.395 4.395s1.97 4.395 4.395 4.395h4.395v26.367H4.688c-2.426 0-4.395 1.97-4.395 4.395S2.262 150 4.688 150h17.578c2.426 0 4.395-1.97 4.395-4.395s-1.97-4.395-4.395-4.395zm0 0"/><use xlink:href="#C" x="82.031"/><path d="M104.297 141.21h-4.395V110.45c0-2.426-1.97-4.395-4.395-4.395h-8.79c-2.426 0-4.395 1.97-4.395 4.395s1.97 4.395 4.395 4.395h4.395v26.367H86.72c-2.426 0-4.395 1.97-4.395 4.395S84.293 150 86.72 150h17.578c2.426 0 4.395-1.97 4.395-4.395s-1.97-4.395-4.395-4.395zm0 0"/></g><path d="M16.406 0h-5.86C4.9 0 .293 4.598.293 10.254V33.7c0 5.656 4.598 10.254 10.254 10.254h5.86c5.656 0 10.254-4.598 10.254-10.254V10.254C26.66 4.598 22.063 0 16.406 0zm1.465 33.7c0 .8-.656 1.465-1.465 1.465h-5.86c-.8 0-1.465-.656-1.465-1.465V10.254c0-.8.656-1.465 1.465-1.465h5.86c.8 0 1.465.656 1.465 1.465zm45.41 1.466h-4.395V4.395C58.887 1.97 56.918 0 54.492 0h-8.8a4.4 4.4 0 0 0-4.395 4.395 4.4 4.4 0 0 0 4.395 4.395h4.395v26.367h-4.395a4.4 4.4 0 0 0-4.395 4.395 4.4 4.4 0 0 0 4.395 4.395H63.28a4.4 4.4 0 0 0 4.395-4.395 4.4 4.4 0 0 0-4.395-4.395zM139.453 0h-5.86c-5.656 0-10.254 4.598-10.254 10.254V33.7c0 5.656 4.598 10.254 10.254 10.254h5.86c5.656 0 10.254-4.598 10.254-10.254V10.254C149.707 4.598 145.1 0 139.453 0zm1.465 33.7c0 .8-.656 1.465-1.465 1.465h-5.86c-.8 0-1.465-.656-1.465-1.465V10.254c0-.8.656-1.465 1.465-1.465h5.86c.8 0 1.465.656 1.465 1.465zm-36.62 1.466h-4.395V4.395A4.4 4.4 0 0 0 95.508 0h-8.8a4.4 4.4 0 0 0-4.395 4.395 4.4 4.4 0 0 0 4.395 4.395h4.395v26.367H86.72a4.4 4.4 0 0 0-4.395 4.395 4.4 4.4 0 0 0 4.395 4.395h17.578a4.4 4.4 0 0 0 4.395-4.395 4.4 4.4 0 0 0-4.395-4.395zm0 0" class="B"/><g class="C"><use xlink:href="#D"/><path d="M9.082 88.184H4.688c-2.426 0-4.395 1.97-4.395 4.395s1.97 4.395 4.395 4.395h17.578c2.426 0 4.395-1.97 4.395-4.395s-1.97-4.395-4.395-4.395H17.87V75h-8.79zm0 0"/><use xlink:href="#D" x="41.015"/><path d="M145.313 88.184h-4.395V75h-8.79v13.184h-4.395c-2.426 0-4.395 1.97-4.395 4.395s1.97 4.395 4.395 4.395h17.578c2.426 0 4.395-1.97 4.395-4.395s-1.97-4.395-4.395-4.395zm0 0"/></g><defs ><path id="B" d="M57.422 53.027h-5.86c-5.656 0-10.254 4.598-10.254 10.254V86.72c0 5.656 4.598 10.254 10.254 10.254h5.86c5.656 0 10.254-4.598 10.254-10.254V63.28c0-5.656-4.598-10.254-10.254-10.254zm1.465 33.69c0 .81-.656 1.465-1.465 1.465h-5.86c-.81 0-1.465-.656-1.465-1.465V63.28c0-.81.656-1.465 1.465-1.465h5.86c.81 0 1.465.656 1.465 1.465zm0 0"/><path id="C" d="M57.422 106.055h-5.86c-5.656 0-10.254 4.598-10.254 10.254v23.438c0 5.656 4.598 10.254 10.254 10.254h5.86c5.656 0 10.254-4.598 10.254-10.254V116.31c0-5.656-4.598-10.254-10.254-10.254zm1.465 33.69c0 .81-.656 1.465-1.465 1.465h-5.86c-.81 0-1.465-.656-1.465-1.465V116.31c0-.81.656-1.465 1.465-1.465h5.86c.81 0 1.465.656 1.465 1.465zm0 0"/><path id="D" d="M58.887 86.72c0 .81-.656 1.465-1.465 1.465h-5.86c-.81 0-1.465-.656-1.465-1.465V75h-8.79v11.72c0 5.656 4.598 10.254 10.254 10.254h5.86c5.656 0 10.254-4.598 10.254-10.254V75h-8.79zm0 0"/></defs></svg>