<svg xmlns="http://www.w3.org/2000/svg" width="200" height="200" viewBox="0 0 150 150" fill="#0078d7"><path d="M66.414 3.367c-24.6 3.1-45.406 17.785-56.016 39.523-3.57 7.297-5.563 13.594-6.766 21.414-.8 4.984-.8 16.406 0 21.4 1.203 7.82 3.223 14.148 6.766 21.383 9.172 18.75 26.367 32.695 46.586 37.797 6.68 1.668 9.96 2.047 18.016 2.047 8.055-.027 11.426-.406 18.016-2.047 5.07-1.3 8.734-2.64 14.063-5.273 18.723-9.14 32.695-26.398 37.797-46.586 1.64-6.6 2.02-9.96 2.047-18.016 0-8.055-.38-11.336-2.047-18.016-1.3-5.07-2.668-8.734-5.273-14.062-8.086-16.523-22.328-29.297-39.844-35.742-3.516-1.32-9.727-2.875-13.918-3.516-4.22-.676-15.234-.852-19.426-.297zM80.8 18.484c22.383 2.434 41.043 17.406 48.105 38.645 8.47 25.457-2.05 53.23-25.312 66.94-28.4 16.703-65.422 5.363-79.773-24.43-9.906-20.54-6.535-44.883 8.555-62.227 11.773-13.508 30.613-20.9 48.426-18.93zM74.2 49.72L57.453 66.27l-10.87-8.086c-5.977-4.453-11.016-8.086-11.223-8.113-.203 0-2.164.555-4.363 1.258l-4.043 1.258.03 21.094v21.094l4.04 2.578c2.227 1.406 4.2 2.55 4.367 2.55s5.215-3.633 11.22-8.086l10.87-8.113 33.164 33.164 9.816-4.164 9.844-4.156V41.453l-8.937-3.867-9.668-4.13c-.703-.262-1.758.73-17.488 16.262zm16.55 33.336l-.1 8.03-10.75-7.97L69.172 75c0-.086 4.832-3.75 10.75-8.117l10.75-7.996.1 8.06v16.1zM48.633 75c0 .117-2.96 2.6-6.594 5.508l-6.6 5.305V64.16l6.6 5.332c3.633 2.898 6.594 5.4 6.594 5.508zm0 0"/></svg>