<svg xmlns="http://www.w3.org/2000/svg" width="200" height="200" viewBox="0 0 150 150"><path d="M113.79 0H36.21c-2.86 0-5.176 2.316-5.176 5.176V129.31h87.93V5.176c0-2.86-2.316-5.176-5.176-5.176zm0 0" fill="rgb(18.431373%,25.490196%,33.72549%)"/><path d="M82.758 12.93H67.242c-1.43 0-2.586-1.156-2.586-2.586s1.156-2.586 2.586-2.586h15.516c1.43 0 2.586 1.16 2.586 2.586s-1.156 2.586-2.586 2.586zm0 0" fill="rgb(100%,100%,100%)"/><path d="M112.613 150H37.387a6.35 6.35 0 0 1-6.352-6.352v-24.684h87.93v24.684a6.35 6.35 0 0 1-6.352 6.352zm0 0" fill="rgb(91.764706%,93.72549%,94.117647%)"/><path d="M82.758 134.484A7.76 7.76 0 0 1 75 142.242a7.76 7.76 0 0 1-7.758-7.758c0-4.285 3.473-7.762 7.758-7.762s7.758 3.477 7.758 7.762zm0 0" fill="rgb(72.156863%,74.509804%,76.470588%)"/><path d="M75 72.414l-15.516-7.758v-20.69L75 51.723zm0 0" fill="rgb(92.941176%,54.117647%,9.803922%)"/><path d="M90.516 43.965L75 51.723l-15.516-7.758L75 36.207zm0 0" fill="rgb(92.156863%,72.941176%,8.627451%)"/><path d="M75 72.414l15.516-7.758v-20.69L75 51.723zm0 0" fill="rgb(82.745098%,45.098039%,7.45098%)"/><path d="M90.516 100.863L75 93.102V72.414l15.516 7.758zm0 0" fill="rgb(24.705882%,93.72549%,93.72549%)"/><path d="M106.035 72.414l-15.52 7.758L75 72.414l15.516-7.758zm0 0" fill="rgb(7.058824%,63.529412%,65.882353%)"/><path d="M90.516 100.863l15.52-7.762V72.414l-15.52 7.758zm0 0" fill="rgb(11.372549%,81.960784%,85.098039%)"/><path d="M59.484 100.863l-15.52-7.762V72.414l15.52 7.758zm0 0" fill="rgb(98.823529%,24.313725%,50.588235%)"/><path d="M75 72.414l-15.516 7.758-15.52-7.758 15.52-7.758zm0 0" fill="rgb(99.215686%,50.980392%,67.45098%)"/><path d="M59.484 100.863L75 93.102V72.414l-15.516 7.758zm0 0" fill="rgb(94.117647%,6.27451%,32.941176%)"/></svg>