<svg xmlns="http://www.w3.org/2000/svg" width="237.333" height="200" viewBox="0 0 178 150" fill="rgb(18,115,235)"><path d="M30.984 105.898c-.672-3.62-1.54-7.18-2.008-10.8-1.875-14.16 1.137-27.242 9.5-38.918 6.56-9.195 15.527-15.57 25.832-19.996 12.38-5.3 25.695-8.187 39.145-8.457 11.98-.336 22.418 4.094 31.52 11.6 9.367 7.785 16.594 17.38 22.148 28.184 2.676 5.234 5.152 10.602 7.695 15.97a9.14 9.14 0 0 1 .602 1.945c-3.547 2.148-6.957 4.363-10.57 6.3-13.383 7.38-27.84 12.414-42.895 15.03-8.23 1.406-16.527 2.2-24.828 2.75-7.895.535-15.793.805-23.687.602-10.773-.266-21.48-1.945-32.453-4.227zM47.98 69.934c-.203 11.8 9.367 21.34 21.012 21.473 11.242.133 21.746-8.523 21.746-21.203 0-13.152-10.102-21.473-21.4-21.473-11.7 0-21.28 9.46-21.348 21.203zm82.242 6.172c6.355.473 13.45-4.828 13.516-13.55a13.1 13.1 0 0 0-12.98-13.219h-.27c-7.36-.137-13.383 5.77-13.516 13.082v.203c0 7.648 5.688 13.484 13.25 13.484zm35.598 12.347c.938 11.273-1.87 21.203-7.492 30.328-7.63 12.348-19.008 20.133-32.4 25.03-13.648 4.965-28.172 6.9-42.625 5.836-8.633-.602-17.332-1.88-25.094-5.973-13.383-7.113-21.684-18.453-26.03-32.88-.2-.87-.27-1.812-.336-2.684 47.18 10.938 91.945 6.105 133.97-19.66zm0 0"/><path d="M163.613 47.457c3.48-1.277 3.48-1.344 3.145-4.633-.2-1.88-.27-3.758.668-5.566.402-.738.336-1.68.402-2.55.133-2.684 2.344-4.766 5.02-4.766s4.953 2.148 5.086 4.832c0 2.684-2.14 4.898-4.82 5.03-.867.07-1.738 0-2.94 0-.137 1.344-.402 2.55-.27 3.7.402 3.3-.133 6.04-3.88 7.45L173.65 64.5l-11.44 7.113c-4.816-11.207-12.18-20.47-21.012-28.922l6.824-8.32c6.36 3.02 11.1 7.852 15.594 13.086zM25.898 88.992l-11.1-3.758c-.535-6.7.87-12.953 3.344-19.06l-3.88-6.172c-1.406 0-2.812.27-4.016-.066-2.676-.605-5.285-1.4-7.762-2.418-1.94-.803-2.8-3.488-2.274-5.432.738-2.348 2.945-3.824 5.355-3.625a4.99 4.99 0 0 1 4.484 4.227c.133 1.074 0 2.215 0 3.56h5.887c2.477 1.008 2.344 4.027 4.215 5.973 3.684-4.832 7.297-9.664 12.78-13.086l5.086 3.957c-3.88 5.37-8.027 10.402-9.434 16.645-1.406 6.305-1.8 12.613-2.676 19.258zM71.402 32.36l-2.277-5.637c6.3-5.035 13.45-7.113 21.012-8.12.133-2.012-.867-2.883-2.406-3.7-5.223-2.684-6.1-8.988-1.94-12.816C88.266-.187 91.207-.52 94.152.62c2.676.938 4.55 3.422 4.75 6.305a7.52 7.52 0 0 1-3.68 7.652c-.734.402-1.54.734-2.273 1.07l.8 2.55c6.762-.133 13.383-.066 19.94 2.55l-.937 5.57c-13.852.066-27.902-.672-41.352 6.04zm0 0"/></svg>