<svg xmlns="http://www.w3.org/2000/svg" width="205.333" height="200" viewBox="0 0 154 150" fill="rgb(8.627451%,8.627451%,7.843137%)"><path d="M76.703 0C34.348 0 0 34.383 0 76.8c0 33.93 21.977 62.72 52.453 72.87 3.832.7 5.242-1.664 5.242-3.7l-.105-14.3c-21.34 4.648-25.84-9.06-25.84-9.06-3.492-8.88-8.52-11.238-8.52-11.238-6.957-4.766.527-4.668.527-4.668 7.703.54 11.758 7.914 11.758 7.914 6.84 11.738 17.94 8.344 22.32 6.383.688-4.965 2.676-8.352 4.867-10.27-17.035-1.94-34.945-8.527-34.945-37.953 0-8.387 2.996-15.238 7.906-20.613-.797-1.937-3.422-9.746.742-20.324 0 0 6.44-2.066 21.098 7.87 6.117-1.703 12.68-2.555 19.2-2.586 6.52.03 13.086.883 19.215 2.586 14.64-9.937 21.07-7.87 21.07-7.87 4.176 10.578 1.55 18.387.754 20.324 4.918 5.375 7.895 12.227 7.895 20.613 0 29.496-17.945 35.992-35.023 37.9 2.75 2.387 5.203 7.06 5.203 14.223l-.1 21.078c0 2.043 1.38 4.438 5.27 3.684 30.457-10.168 52.406-38.945 52.406-72.863 0-42.418-34.34-76.8-76.7-76.8M28.727 109.402c-.168.38-.77.496-1.312.234-.56-.25-.87-.77-.7-1.156.168-.4.766-.5 1.324-.238.555.25.875.777.68 1.16m3.773 3.37c-.363.34-1.082.18-1.566-.355-.5-.535-.594-1.25-.223-1.598.375-.336 1.07-.18 1.574.355.5.543.598 1.254.215 1.598m2.6 4.313c-.473.328-1.238.02-1.715-.664-.47-.684-.47-1.5.012-1.828s1.23-.035 1.715.645c.47.695.47 1.512-.012 1.848m4.375 4.996c-.418.46-1.312.336-1.97-.297-.672-.617-.86-1.496-.437-1.96s1.328-.336 1.988.293c.664.617.867 1.504.418 1.965m5.66 1.684c-.187.602-1.05.875-1.918.62-.867-.266-1.434-.97-1.262-1.578.184-.605 1.047-.887 1.922-.613.867.262 1.438.96 1.258 1.57m6.438.715c.023.637-.715 1.16-1.63 1.172-.914.02-1.656-.492-1.668-1.117 0-.637.723-1.16 1.637-1.176s1.66.492 1.66 1.12m6.324-.242c.1.617-.523 1.254-1.43 1.422-.9.164-1.715-.22-1.828-.832-.1-.633.535-1.266 1.426-1.43.906-.16 1.72.2 1.832.84"/></svg>