<svg xmlns="http://www.w3.org/2000/svg" width="200" height="200" viewBox="0 0 150 150"><path d="M11.203 0c-1.38 0-2.406 1.125-2.285 2.496l11.625 130.367c.12 1.37 1.31 2.797 2.637 3.164l49.32 13.695c1.328.37 3.5.37 4.832 0l49.47-13.715c1.328-.367 2.516-1.793 2.637-3.168L141.082 2.496c.12-1.37-.906-2.496-2.285-2.496zm105.125 29.898l-1.117 12.508-.2 1.867H54.02a2.25 2.25 0 0 0-2.281 2.496l1.074 12.008c.12 1.37 1.352 2.496 2.73 2.496h55.75a2.01 2.01 0 0 1 2.031 2.227l-.426 4.723-3.8 42.617c-.066.77-1.21 1.7-2.54 2.07l-31.598 8.758c-.02.004-1.12-.293-2.453-.664L43.336 112.9c-1.328-.367-2.516-1.793-2.637-3.168l-1.88-21.078c-.12-1.37.906-2.496 2.285-2.496H52.75c1.38 0 2.605 1.125 2.73 2.496l.734 8.254c.125 1.37 1.313 2.79 2.645 3.148l16.074 4.34c.008 0 1.102-.297 2.434-.656l13.668-3.69c1.332-.36 2.523-1.777 2.645-3.152l1.484-16.53c.12-1.37-.906-2.496-2.285-2.496H40.36a2.8 2.8 0 0 1-2.727-2.496l-4.06-45.484c-.11-1.223.93-2.227 2.305-2.227h78.14c1.38 0 2.418 1 2.31 2.227zm0 0" fill="rgb(86.666667%,31.764706%,16.470588%)"/></svg>