<svg xmlns="http://www.w3.org/2000/svg" width="200" height="200" viewBox="0 0 150 150"><path d="M72.477 102.133c-8.496-5.637-18.37-8.617-28.57-8.617H27.93c-1.164 0-2.285-.465-3.11-1.29L14.598 82.004C5.184 72.6 0 60.07 0 46.758c0-2.426 1.97-4.395 4.395-4.395 13.316 0 25.836 5.184 35.246 14.598l38.387 38.387c.79.75 1.97 2.61 1.03 4.87a4.4 4.4 0 0 1-6.582 1.914zm0 0" fill="rgb(0%,86.27451%,50.980392%)"/><path d="M77.523 102.133a51.49 51.49 0 0 1 28.566-8.617h15.98c1.164 0 2.28-.465 3.105-1.29l10.223-10.223c9.414-9.414 14.598-21.934 14.598-35.246 0-2.426-1.965-4.395-4.395-4.395-13.316 0-25.832 5.184-35.246 14.598L71.973 95.348c-.79.75-1.97 2.61-1.035 4.87 1.078 2.602 4.293 3.523 6.586 1.914zm0 0" fill="rgb(0%,66.666667%,54.901961%)"/><path d="M71.89 101.64L28.72 58.47C19.305 49.055 14.12 36.535 14.12 23.223c0-2.426 1.97-4.395 4.395-4.395h4.707c23.188 0 42.05 18.863 42.05 42.05v3.566c0 11.703 4.56 22.707 12.832 30.98a4.4 4.4 0 0 1-1.187 7.063c-1.81.88-3.805.375-5.027-.848zm0 0" fill="rgb(86.27451%,100%,43.137255%)"/><g fill="rgb(50.980392%,93.333333%,35.294118%)"><path d="M78.105 101.64l43.172-43.172c9.414-9.414 14.598-21.934 14.598-35.246 0-2.426-1.965-4.395-4.395-4.395h-4.703c-23.187 0-42.05 18.863-42.05 42.05v3.566c0 11.703-4.56 22.707-12.836 30.98a4.4 4.4 0 0 0 1.191 7.063c1.81.88 3.8.375 5.023-.848zm0 0"/><path d="M75 102.93c-1.242 0-2.375-.52-3.18-1.36-9.89-9.926-15.336-23.105-15.336-37.125v-25.96c0-14.055 5.473-27.262 15.406-37.2C72.715.46 73.832 0 75 0a4.4 4.4 0 0 1 3.109 1.285c9.934 9.938 15.406 23.145 15.406 37.2v25.96c0 14.02-5.445 27.2-15.336 37.125-.805.84-1.937 1.36-3.18 1.36zm0 0"/></g><path d="M78.18 101.57c9.89-9.926 15.336-23.105 15.336-37.125v-25.96c0-14.055-5.473-27.262-15.406-37.2C77.285.465 76.164 0 75 0v102.93c1.242 0 2.375-.52 3.18-1.36zm0 0" fill="rgb(0%,86.27451%,50.980392%)"/><path d="M145.605 84.727h-39.512c-11.012 0-21.7 2.97-31.094 8.605-9.395-5.637-20.082-8.605-31.094-8.605H4.395C1.97 84.727 0 86.695 0 89.12v3.895C0 124.438 25.563 150 56.988 150c3.684 0 7.145-1.434 9.75-4.04l6.66-6.664a2.28 2.28 0 0 1 3.203 0l6.66 6.664c2.605 2.605 6.066 4.04 9.75 4.04C124.438 150 150 124.438 150 93.016V89.12c0-2.426-1.97-4.395-4.395-4.395zm-94.14 46.445c-18.34 0-26.273-17.5-27.707-21.848-.937-2.84 1.18-5.77 4.172-5.77h23.535a13.83 13.83 0 0 1 13.809 13.809 13.83 13.83 0 0 1-13.809 13.809zm74.777-21.848c-1.434 4.348-9.367 21.848-27.707 21.848a13.83 13.83 0 0 1-13.809-13.809 13.83 13.83 0 0 1 13.809-13.809h23.535c2.992 0 5.11 2.93 4.172 5.77zm0 0" fill="rgb(100%,0%,39.215686%)"/><path d="M76.602 139.297l6.66 6.664c2.605 2.605 6.066 4.04 9.75 4.04C124.438 150 150 124.438 150 93.016V89.12c0-2.426-1.97-4.395-4.395-4.395h-39.512c-11.012 0-21.7 2.97-31.094 8.605v45.305a2.28 2.28 0 0 1 1.602.66zm21.934-35.742h23.535c2.992 0 5.11 2.93 4.172 5.77-1.434 4.348-9.367 21.848-27.707 21.848a13.83 13.83 0 0 1-13.809-13.809 13.83 13.83 0 0 1 13.809-13.809zm0 0" fill="rgb(78.431373%,0%,39.215686%)"/></svg>