<svg xmlns="http://www.w3.org/2000/svg" width="200" height="200" viewBox="0 0 150 150"><path d="M111.918 149.98a37.07 37.07 0 0 1-15.086-3.199c-7.703-3.4-13.918-9.223-17.973-16.81-1.133-2.11-3.094-2.34-3.883-2.34s-2.75.227-3.883 2.34c-4.055 7.586-10.27 13.398-17.973 16.81s-16.184 4.113-24.527 2.02-15.492-6.707-20.672-13.348S0 120.754 0 112.156l.047-32.488a4.39 4.39 0 0 1 2.715-4.051c1.64-.68 3.53-.305 4.785.953l1.18 1.18c7.688 7.69 17.094 11.6 27.97 11.6h76.656c10.875 0 20.28-3.898 27.97-11.6l1.18-1.18c1.258-1.258 3.148-1.633 4.79-.953s2.715 2.29 2.71 4.066l-.047 32.477c0 8.594-2.738 16.652-7.922 23.293S129.703 146.71 121.36 148.8c-3.145.79-6.31 1.18-9.44 1.18zm0 0" fill="rgb(100%,53.333333%,33.72549%)"/><path d="M147.29 75.617c-1.64-.68-3.53-.305-4.79.953l-1.18 1.18c-7.687 7.69-17.094 11.6-27.97 11.6H75v38.293c.805.004 2.738.246 3.86 2.34 4.055 7.586 10.27 13.398 17.973 16.81a37.07 37.07 0 0 0 15.086 3.199c3.133 0 6.297-.39 9.44-1.18 8.344-2.1 15.492-6.707 20.672-13.348s7.922-14.7 7.922-23.293L150 79.684a4.39 4.39 0 0 0-2.711-4.066zm0 0" fill="rgb(100%,26.27451%,35.686275%)"/><path d="M74.938 89.82c1.113-15.77 8.395-31.12 20.5-43.227 4.215-4.215 8.82-7.844 13.703-10.832 9.14-5.594 30.656 13.793 25.84 22.344-3.215 5.7-7.285 11.063-12.13 15.906-12.105 12.105-27.453 19.383-43.223 20.5-1.27.1-2.516-.375-3.418-1.277a4.39 4.39 0 0 1-1.273-3.414zm0 0" fill="rgb(63.529412%,29.411765%,85.882353%)"/><path d="M112.414 56.88c-4.69-4.69-7.836-10.695-9.055-17.172 10.566-7.965 22.8-12.727 35.3-13.613 1.27-.1 2.516.375 3.418 1.277s1.363 2.145 1.273 3.418c-.88 12.457-5.613 24.652-13.53 35.195-6.566-1.184-12.637-4.336-17.406-9.105zm0 0" fill="rgb(0%,79.607843%,45.882353%)"/><path d="M74.707 93.234a4.38 4.38 0 0 1-3.414 1.277c-15.77-1.117-31.12-8.395-43.227-20.5-5.086-5.086-9.32-10.746-12.602-16.77-4.53-8.312 14.617-27.88 22.8-23.492 6.19 3.316 12.004 7.633 17.22 12.844C67.6 58.7 74.867 74.05 75.984 89.82a4.38 4.38 0 0 1-1.277 3.414zm0 0" fill="rgb(71.764706%,37.647059%,91.764706%)"/><path d="M38.508 56.88c4.69-4.69 7.836-10.695 9.055-17.172-10.566-7.965-22.8-12.727-35.3-13.613a4.39 4.39 0 0 0-3.418 1.277c-.898.898-1.367 2.145-1.277 3.418.883 12.457 5.617 24.652 13.53 35.195 6.57-1.184 12.64-4.336 17.4-9.105zm0 0" fill="rgb(74.509804%,90.588235%,36.862745%)"/><path d="M37.633 130.48c-7.496 0-14.363-4.105-17.926-10.707-.352-.652-.352-1.437 0-2.086 3.563-6.605 10.43-10.707 17.926-10.707s14.367 4.102 17.93 10.707c.352.648.352 1.434 0 2.086-3.562 6.602-10.43 10.707-17.93 10.707zm0 0" fill="rgb(100%,26.27451%,35.686275%)"/><path d="M74.977 93.164c-1.273 0-2.484-.55-3.316-1.512C61.297 79.71 55.6 63.71 55.6 46.6c0-7.742 1.168-15.254 3.406-22.266 2.707-8.496 29.62-7.82 32.305 1.105 2.012 6.695 3.063 13.824 3.063 21.16 0 17.12-5.707 33.12-16.07 45.063-.832.96-2.043 1.512-3.316 1.512zm0 0" fill="rgb(85.098039%,56.078431%,97.254902%)"/><path d="M91.3 25.43c-1.352-4.496-8.848-6.895-16.3-7.1v74.824c1.266-.008 2.465-.56 3.293-1.512 10.363-11.94 16.07-27.94 16.07-45.062 0-7.336-1.05-14.465-3.062-21.16zm0 0" fill="rgb(79.215686%,45.882353%,96.078431%)"/><path d="M112.32 130.48c-7.5 0-14.367-4.105-17.93-10.707-.352-.652-.352-1.437 0-2.086 3.563-6.605 10.43-10.707 17.93-10.707s14.363 4.102 17.926 10.707c.352.648.352 1.434 0 2.086-3.562 6.602-10.43 10.707-17.926 10.707zm0 0" fill="rgb(80%,18.039216%,26.27451%)"/><path d="M75.086 41.86c6.637 0 13.105-2.023 18.547-5.742-1.84-13.102-7.125-25.12-15.34-34.586C77.46.57 76.25.02 74.977.02S72.492.57 71.66 1.53c-8.187 9.434-13.465 21.406-15.32 34.457 5.477 3.81 12.004 5.87 18.746 5.87zm0 0" fill="rgb(100%,87.058824%,27.45098%)"/><g fill-rule="evenodd"><path d="M74.977 81.438c5.8 0 10.543 4.746 10.543 10.543v3.223c0 5.8-4.742 10.543-10.543 10.543s-10.543-4.742-10.543-10.543V91.98c0-5.797 4.742-10.543 10.543-10.543zm0 0" fill="rgb(49.019608%,83.529412%,95.686275%)"/><path d="M75 81.438v24.31c5.79-.012 10.52-4.75 10.52-10.543V91.98A10.58 10.58 0 0 0 75 81.438zm0 0" fill="rgb(27.843137%,57.647059%,100%)"/></g><path d="M74.977 110.14c-8.234 0-14.937-6.7-14.937-14.937V91.98c0-8.234 6.703-14.934 14.938-14.934s14.938 6.7 14.938 14.934v3.223c0 8.238-6.7 14.938-14.937 14.938zm0-24.31a6.16 6.16 0 0 0-6.152 6.148v3.223c0 3.39 2.762 6.152 6.152 6.152s6.152-2.762 6.152-6.152V91.98a6.16 6.16 0 0 0-6.152-6.148zm0 0" fill="rgb(0%,25.882353%,61.568627%)"/><path d="M75 77.047v8.785a6.16 6.16 0 0 1 6.129 6.148v3.223A6.16 6.16 0 0 1 75 101.352v8.79c8.227-.016 14.914-6.707 14.914-14.937V91.98c0-8.227-6.687-14.922-14.914-14.934zm0 0" fill="rgb(0%,20.392157%,48.235294%)"/><path d="M78.293 1.53C77.465.578 76.266.027 75 .02v41.836l.086.004c6.633 0 13.105-2.023 18.547-5.742-1.84-13.102-7.125-25.12-15.34-34.586zm0 0" fill="rgb(100%,80.392157%,0%)"/></svg>