<svg xmlns="http://www.w3.org/2000/svg" width="181.333" height="198.667" viewBox="0 0 136 149" fill="rgb(54.901961%,78.431373%,29.411765%)"><path d="M61.88 1.9c3.7-2.105 8.516-2.113 12.207 0l55.766 31.336c3.496 1.957 5.832 5.828 5.797 9.832v62.86c.027 4.176-2.543 8.137-6.23 10.05l-55.562 31.184c-3.777 2.148-8.687 1.98-12.344-.34l-16.676-9.6c-1.133-.676-2.414-1.2-3.215-2.305.7-.95 1.977-1.07 3.004-1.484 2.32-.734 4.45-1.9 6.578-3.05.54-.367 1.195-.227 1.715.102l14.22 8.18c1.02.582 2.047-.2 2.918-.676l54.56-30.625c.672-.324 1.043-1.035.988-1.77l.008-62.2c.078-.832-.406-1.598-1.164-1.937L69.08 10.4a1.93 1.93 0 0 0-2.176-.004L11.53 41.453c-.754.34-1.258 1.094-1.168 1.93v62.215c-.066.734.332 1.43 1 1.746l14.8 8.305c2.777 1.488 6.188 2.37 9.246 1.23a6.98 6.98 0 0 0 4.539-6.555l.02-61.844c-.066-.914.805-1.672 1.7-1.586l7.105.008c.988-.023 1.668.96 1.543 1.883l-.016 62.238c.008 5.527-2.277 11.543-7.418 14.25-6.332 3.266-14.16 2.57-20.418-.56-5.414-2.687-10.586-5.863-15.906-8.742-3.695-1.905-6.254-5.87-6.227-10.05V43.06c-.04-4.086 2.395-8.027 5.996-9.957L61.88 1.9zm16.16 43.544c8.078-.516 16.727-.305 23.996 3.652 5.63 3.035 8.75 9.402 8.848 15.62-.156.84-1.04 1.305-1.844 1.246-2.344-.004-4.687.03-7.03-.016-.996.04-1.574-.875-1.7-1.75-.672-2.977-2.305-5.922-5.12-7.36-4.32-2.152-9.332-2.043-14.047-2-3.44.184-7.14.48-10.06 2.492-2.238 1.523-2.918 4.602-2.117 7.082.75 1.78 2.816 2.355 4.508 2.883 9.734 2.535 20.05 2.28 29.602 5.617 3.953 1.36 7.82 4 9.176 8.117 1.77 5.52.992 12.117-2.953 16.547-3.203 3.648-7.863 5.633-12.516 6.7-6.184 1.37-12.605 1.406-18.887.797-5.906-.672-12.055-2.215-16.613-6.22-3.902-3.367-5.805-8.617-5.617-13.68.047-.855.902-1.453 1.727-1.383l7.078.004c.945-.07 1.645.742 1.7 1.625.438 2.836 1.508 5.813 3.992 7.496 4.797 3.078 10.816 2.867 16.3 2.953 4.55-.203 9.66-.262 13.375-3.254 1.96-1.707 2.54-4.562 2.012-7.02-.574-2.074-2.758-3.04-4.63-3.672-9.6-3.023-20.043-1.926-29.562-5.348-3.863-1.36-7.598-3.926-9.082-7.875-2.074-5.6-1.125-12.504 3.238-16.785 4.25-4.258 10.4-5.898 16.227-6.484zm0 0"/></svg>