<svg xmlns="http://www.w3.org/2000/svg" width="200" height="200" viewBox="0 0 150 150"><g fill="rgb(19.607843%,73.333333%,100%)"><path d="M112.023 51.453L23.25 1.766c-2.926-1.93-6.293-2.184-9.2-1.2l74.43 74.43zm0 0"/><path d="M14.05.566c-.543.184-1.074.406-1.582.676-3.21 1.734-5.57 5.078-5.57 9.305V139.44c0 4.227 2.36 7.57 5.57 9.305.508.27 1.035.492 1.582.68l74.43-74.43zm0 0"/><path d="M88.48 74.996l-74.43 74.43c2.906.992 6.273.758 9.2-1.203l88.793-49.664zm0 0"/></g><path d="M6.898 74.996v64.445c0 4.227 2.36 7.57 5.57 9.305.508.27 1.035.492 1.582.68l74.43-74.43zm0 0" fill="rgb(17.254902%,62.352941%,85.098039%)"/><path d="M23.25 1.766C19.777-.527 15.68-.46 12.47 1.242l74.883 74.883 24.672-24.672L23.25 1.766zm0 0" fill="rgb(16.078431%,80%,36.862745%)"/><path d="M87.352 73.863L12.47 148.746c3.21 1.703 7.31 1.8 10.78-.523l88.793-49.664zm0 0" fill="rgb(85.098039%,24.705882%,12.941176%)"/><path d="M143.102 74.996c0-3.574-1.805-7.176-5.375-9.176l-27.152-15.18-24.352 24.355 24.375 24.375 27.13-15.203c3.57-2 5.375-5.602 5.375-9.172zm0 0" fill="rgb(100%,83.529412%,0%)"/><path d="M137.727 84.168c3.57-2 5.375-5.602 5.375-9.172h-56.88l24.375 24.375 27.13-15.203zm0 0" fill="rgb(100%,66.666667%,0%)"/></svg>