<svg xmlns="http://www.w3.org/2000/svg" xmlns:xlink="http://www.w3.org/1999/xlink" width="200" height="200" viewBox="0 0 150 150"><style><![CDATA[.B{fill:rgb(94.117647%,36.078431%,64.705882%)}.C{fill:rgb(80.784314%,82.352941%,88.235294%)}.D{fill:rgb(86.27451%,88.235294%,91.764706%)}.E{fill:rgb(0%,80%,46.27451%)}.F{fill:rgb(0%,84.313725%,87.45098%)}.G{fill:rgb(27.45098%,97.254902%,100%)}.H{fill:rgb(60.784314%,98.431373%,100%)}.I{fill:rgb(92.156863%,11.372549%,51.372549%)}]]></style><path d="M75 94.172a4.4 4.4 0 0 0-4.398 4.398v40.082A4.4 4.4 0 0 0 75 143.047a4.4 4.4 0 0 0 4.398-4.395V98.57A4.4 4.4 0 0 0 75 94.172zm0 0" class="G"/><path d="M70.602 98.57v40.082A4.4 4.4 0 0 0 75 143.047V94.172a4.4 4.4 0 0 0-4.398 4.398zm0 0" class="H"/><path d="M137.66 117.96H12.34a4.4 4.4 0 0 0-4.398 4.398 4.4 4.4 0 0 0 4.398 4.395h125.32c2.426 0 4.395-1.97 4.395-4.395a4.4 4.4 0 0 0-4.395-4.398zm0 0" class="G"/><path d="M12.34 117.96a4.4 4.4 0 0 0-4.398 4.398 4.4 4.4 0 0 0 4.398 4.395H75v-8.793zm0 0" class="H"/><path d="M117.14 20.332H32.86a4.4 4.4 0 0 0-4.398 4.395v54.62a4.4 4.4 0 0 0 4.398 4.398h84.28a4.4 4.4 0 0 0 4.398-4.398v-54.62a4.4 4.4 0 0 0-4.398-4.395zm0 0" fill="rgb(0%,25.882353%,61.568627%)"/><path d="M28.46 24.727v54.62a4.4 4.4 0 0 0 4.398 4.398H75V20.332H32.86a4.4 4.4 0 0 0-4.398 4.395zm0 0" fill="rgb(0%,37.254902%,88.235294%)"/><path d="M75 150c-4.86 0-8.812-3.953-8.812-8.812A8.82 8.82 0 0 1 75 132.379a8.82 8.82 0 0 1 8.813 8.809c0 4.86-3.953 8.813-8.812 8.813zm0 0" class="I"/><path d="M13.215 131.168c-4.86 0-8.812-3.953-8.812-8.81s3.953-8.812 8.813-8.812 8.813 3.953 8.813 8.813-3.953 8.81-8.812 8.81zm0 0" class="B"/><path d="M136.785 131.168a8.82 8.82 0 0 1-8.812-8.809c0-4.86 3.953-8.812 8.813-8.812s8.813 3.953 8.813 8.813-3.953 8.81-8.812 8.81zm0 0" class="I"/><path d="M126.63 0H23.37a4.4 4.4 0 0 0-4.398 4.398V25.5a4.4 4.4 0 0 0 4.398 4.398H126.63a4.4 4.4 0 0 0 4.398-4.398V4.398A4.4 4.4 0 0 0 126.629 0zm0 0" class="C"/><path d="M23.37 0a4.4 4.4 0 0 0-4.398 4.398V25.5a4.4 4.4 0 0 0 4.398 4.398H75V0zm0 0" class="D"/><use xlink:href="#B" class="B"/><use xlink:href="#B" x="78.954" class="E"/><use xlink:href="#B" x="65.859" class="F"/><path d="M126.63 38.71H23.37a4.4 4.4 0 0 0-4.398 4.398V64.21a4.4 4.4 0 0 0 4.398 4.398H126.63a4.4 4.4 0 0 0 4.398-4.398V43.105a4.4 4.4 0 0 0-4.398-4.395zm0 0" class="C"/><path d="M23.37 38.71a4.4 4.4 0 0 0-4.398 4.395V64.21a4.4 4.4 0 0 0 4.398 4.398H75V38.71zm0 0" class="D"/><use xlink:href="#C" class="B"/><use xlink:href="#C" x="78.953" class="E"/><use xlink:href="#C" x="65.859" class="F"/><path d="M126.63 77.422H23.37a4.4 4.4 0 0 0-4.398 4.395v21.105a4.4 4.4 0 0 0 4.398 4.398H126.63a4.4 4.4 0 0 0 4.398-4.398V81.816a4.4 4.4 0 0 0-4.398-4.395zm0 0" class="C"/><path d="M23.37 77.422a4.4 4.4 0 0 0-4.398 4.395v21.105a4.4 4.4 0 0 0 4.398 4.398H75V77.422zm0 0" class="D"/><use xlink:href="#C" y="38.887" class="B"/><use xlink:href="#C" x="78.953" y="38.887" class="E"/><use xlink:href="#C" x="65.859" y="38.887" class="F"/><path d="M75 132.38a8.82 8.82 0 0 0-8.812 8.809c0 4.86 3.953 8.813 8.813 8.813zm0 0" class="B"/><defs ><path id="B" d="M40.246 14.977a4.35 4.35 0 0 0-4.352-4.344c-2.402 0-4.348 1.945-4.348 4.344s1.945 4.348 4.348 4.348a4.35 4.35 0 0 0 4.352-4.348zm0 0"/><path id="C" d="M40.207 53.418a4.35 4.35 0 0 1-4.879 4.875c-1.937-.246-3.504-1.81-3.746-3.746a4.35 4.35 0 0 1 4.879-4.875c1.938.246 3.504 1.81 3.746 3.746zm0 0"/></defs></svg>